<svg width="17" height="24" viewBox="0 0 17 24" fill="none" xmlns="http://www.w3.org/2000/svg">
<g opacity="0.7">
<path d="M15.5312 16.9688C16.1406 17.5312 16.1406 18.5156 15.5312 19.0781C15.25 19.3594 14.875 19.5 14.5 19.5C14.0781 19.5 13.7031 19.3594 13.4219 19.0781L8.5 14.1562L3.53125 19.0781C3.25 19.3594 2.875 19.5 2.5 19.5C2.07812 19.5 1.70312 19.3594 1.42188 19.0781C0.8125 18.5156 0.8125 17.5312 1.42188 16.9688L6.34375 12L1.42188 7.07812C0.8125 6.51562 0.8125 5.53125 1.42188 4.96875C1.98438 4.35938 2.96875 4.35938 3.53125 4.96875L8.5 9.89062L13.4219 4.96875C13.9844 4.35938 14.9688 4.35938 15.5312 4.96875C16.1406 5.53125 16.1406 6.51562 15.5312 7.07812L10.6094 12.0469L15.5312 16.9688Z" fill="white"/>
</g>
</svg>
