<svg xmlns="http://www.w3.org/2000/svg" width="25" height="16.667" viewBox="0 0 25 16.667">
  <path id="Icon_awesome-newspaper" data-name="Icon awesome-newspaper" d="M23.958,4.5H3.819A1.042,1.042,0,0,0,2.778,5.542v.347H1.042A1.042,1.042,0,0,0,0,6.931V18.736a2.431,2.431,0,0,0,2.431,2.431H22.917A2.083,2.083,0,0,0,25,19.083V5.542A1.042,1.042,0,0,0,23.958,4.5ZM2.431,19.083a.347.347,0,0,1-.347-.347V7.972h.694V18.736A.347.347,0,0,1,2.431,19.083Zm10.243-.694h-6.6a.521.521,0,0,1-.521-.521v-.347A.521.521,0,0,1,6.076,17h6.6a.521.521,0,0,1,.521.521v.347A.521.521,0,0,1,12.674,18.389Zm9.028,0H15.1a.521.521,0,0,1-.521-.521v-.347A.521.521,0,0,1,15.1,17h6.6a.521.521,0,0,1,.521.521v.347A.521.521,0,0,1,21.7,18.389Zm-9.028-4.167h-6.6a.521.521,0,0,1-.521-.521v-.347a.521.521,0,0,1,.521-.521h6.6a.521.521,0,0,1,.521.521V13.7A.521.521,0,0,1,12.674,14.222Zm9.028,0H15.1a.521.521,0,0,1-.521-.521v-.347a.521.521,0,0,1,.521-.521h6.6a.521.521,0,0,1,.521.521V13.7A.521.521,0,0,1,21.7,14.222Zm0-4.167H6.076a.521.521,0,0,1-.521-.521V7.8a.521.521,0,0,1,.521-.521H21.7a.521.521,0,0,1,.521.521V9.535A.521.521,0,0,1,21.7,10.056Z" transform="translate(0 -4.5)" fill="#707070"/>
</svg>
