<svg xmlns="http://www.w3.org/2000/svg" width="25" height="22.222" viewBox="0 0 25 22.222">
  <path id="Icon_awesome-bullhorn" data-name="Icon awesome-bullhorn" d="M25,10.417a2.765,2.765,0,0,0-1.389-2.392V1.389A1.4,1.4,0,0,0,22.222,0a1.386,1.386,0,0,0-.867.3L17.664,3.257a10.534,10.534,0,0,1-6.553,2.3H2.778A2.778,2.778,0,0,0,0,8.333V12.5a2.778,2.778,0,0,0,2.778,2.778H4.24a10.547,10.547,0,0,0-.095,1.389,11,11,0,0,0,1.109,4.815,1.362,1.362,0,0,0,1.233.74H9.712a1.38,1.38,0,0,0,1.124-2.194A5.527,5.527,0,0,1,9.7,16.667a5.252,5.252,0,0,1,.191-1.389h1.219a10.532,10.532,0,0,1,6.553,2.3l3.691,2.953a1.388,1.388,0,0,0,2.256-1.084V12.809A2.766,2.766,0,0,0,25,10.417Zm-4.167,6.138L19.4,15.407A13.316,13.316,0,0,0,11.111,12.5V8.333A13.316,13.316,0,0,0,19.4,5.426l1.434-1.148Z" fill="#707070"/>
</svg>
