<svg xmlns="http://www.w3.org/2000/svg" width="25" height="20.313" viewBox="0 0 25 20.313">
  <path id="Icon_awesome-list" data-name="Icon awesome-list" d="M3.906,19H.781A.781.781,0,0,0,0,19.781v3.125a.781.781,0,0,0,.781.781H3.906a.781.781,0,0,0,.781-.781V19.781A.781.781,0,0,0,3.906,19Zm0-15.625H.781A.781.781,0,0,0,0,4.156V7.281a.781.781,0,0,0,.781.781H3.906a.781.781,0,0,0,.781-.781V4.156A.781.781,0,0,0,3.906,3.375Zm0,7.813H.781A.781.781,0,0,0,0,11.969v3.125a.781.781,0,0,0,.781.781H3.906a.781.781,0,0,0,.781-.781V11.969A.781.781,0,0,0,3.906,11.188Zm20.313,8.594H8.594a.781.781,0,0,0-.781.781v1.563a.781.781,0,0,0,.781.781H24.219A.781.781,0,0,0,25,22.125V20.563A.781.781,0,0,0,24.219,19.781Zm0-15.625H8.594a.781.781,0,0,0-.781.781V6.5a.781.781,0,0,0,.781.781H24.219A.781.781,0,0,0,25,6.5V4.938A.781.781,0,0,0,24.219,4.156Zm0,7.813H8.594a.781.781,0,0,0-.781.781v1.563a.781.781,0,0,0,.781.781H24.219A.781.781,0,0,0,25,14.313V12.75A.781.781,0,0,0,24.219,11.969Z" transform="translate(0 -3.375)" fill="#707070"/>
</svg>
