<svg xmlns="http://www.w3.org/2000/svg" width="25" height="22.222" viewBox="0 0 25 22.222">
  <path id="Icon_awesome-plane" data-name="Icon awesome-plane" d="M20.834,8.333H15.873L11.311.35a.7.7,0,0,0-.6-.35H7.865A.694.694,0,0,0,7.2.885L9.326,8.333H4.861l-1.875-2.5a.7.7,0,0,0-.556-.278H.695a.694.694,0,0,0-.674.863l1.368,4.693L.021,15.8a.694.694,0,0,0,.674.863H2.431a.694.694,0,0,0,.556-.278l1.875-2.5H9.326L7.2,21.337a.7.7,0,0,0,.668.885h2.843a.7.7,0,0,0,.6-.35l4.562-7.984h4.961c1.534,0,4.167-1.243,4.167-2.778S22.368,8.333,20.834,8.333Z" transform="translate(0)" fill="#707070"/>
</svg>
