<svg xmlns="http://www.w3.org/2000/svg" width="25" height="20" viewBox="0 0 25 20">
  <path id="Icon_awesome-tags" data-name="Icon awesome-tags" d="M19.451,8.826,11.174.549A1.875,1.875,0,0,0,9.848,0H1.875A1.875,1.875,0,0,0,0,1.875V9.848a1.875,1.875,0,0,0,.549,1.326l8.277,8.277a1.875,1.875,0,0,0,2.652,0l7.973-7.973a1.875,1.875,0,0,0,0-2.652ZM4.375,6.25A1.875,1.875,0,1,1,6.25,4.375,1.875,1.875,0,0,1,4.375,6.25Zm20.076,5.227-7.973,7.973a1.875,1.875,0,0,1-2.652,0l-.014-.014,6.8-6.8a3.516,3.516,0,0,0,0-4.972L12.945,0h1.9a1.875,1.875,0,0,1,1.326.549l8.277,8.277a1.875,1.875,0,0,1,0,2.652Z" fill="#707070"/>
</svg>
